<?xml version="1.0" standalone="no"?><!DOCTYPE svg PUBLIC "-//W3C//DTD SVG 1.1//EN" "http://www.w3.org/Graphics/SVG/1.1/DTD/svg11.dtd"><svg class="icon" width="200px" height="200.00px" viewBox="0 0 1024 1024" version="1.1" xmlns="http://www.w3.org/2000/svg"><path d="M610.56 0c49.6 0 91.648 34.112 106.496 81.28h74.944c57.28 0 104 49.28 104 109.76v723.136c0 60.48-46.72 109.824-104 109.824h-624C110.72 1024 64 974.72 64 914.176V191.04c0-60.48 46.72-109.824 104-109.824h74.944C257.792 34.112 299.904 0 349.44 0h261.12z m41.344 397.44l-185.216 252.8L348.16 539.008a33.408 33.408 0 0 0-48.96 3.072 38.08 38.08 0 0 0 2.944 51.712l146.24 137.28 0.832 0.832 0.768 0.64c1.088 0.96 1.728 1.536 2.56 1.984 0.896 0.64 1.792 1.152 2.56 1.6 0.832 0.448 1.6 0.896 2.496 1.28l2.496 0.896 2.688 0.832 2.816 0.576 2.816 0.448 1.6 0.064h3.2l0.704-0.064c0.32 0 0.768 0 1.088-0.128l0.768-0.128 1.088-0.128 0.768-0.064 1.088-0.256 0.768-0.256 1.024-0.32 0.64-0.256 1.152-0.32 0.64-0.192 1.728-0.832 1.728-0.832 0.96-0.512 0.64-0.384 0.96-0.576 0.768-0.448 0.896-0.576 0.768-0.576 0.768-0.576 0.832-0.64a30.336 30.336 0 0 0 2.56-2.304l1.024-1.28 0.64-0.64 0.576-0.704 0.832-1.152 208.128-283.968a37.76 37.76 0 0 0-6.208-51.2 33.472 33.472 0 0 0-48.64 6.592zM610.56 73.28H349.44c-23.616 0-42.752 20.288-42.752 45.184 0 24.96 19.2 45.184 42.752 45.184h261.12c23.616 0 42.752-20.224 42.752-45.184 0-24.96-19.2-45.184-42.752-45.184z" fill="#007AFF" /></svg>