<?xml version="1.0" standalone="no"?><!DOCTYPE svg PUBLIC "-//W3C//DTD SVG 1.1//EN" "http://www.w3.org/Graphics/SVG/1.1/DTD/svg11.dtd"><svg class="icon" width="200px" height="200.00px" viewBox="0 0 1024 1024" version="1.1" xmlns="http://www.w3.org/2000/svg"><path d="M692.775385 614.006154a45.686154 45.686154 0 0 0-37.415385 17.329231 61.046154 61.046154 0 0 0-10.24 22.843077 89.796923 89.796923 0 0 0-2.363077 15.36v17.32923a88.221538 88.221538 0 0 0 14.178462 54.35077s1.969231 0 2.756923 2.363076a48.443077 48.443077 0 0 0 12.20923 9.452308 50.806154 50.806154 0 0 0 22.449231 4.726154 39.384615 39.384615 0 0 0 35.052308-18.904615 96.886154 96.886154 0 0 0 10.633846-51.593847 113.033846 113.033846 0 0 0-11.815385-53.16923 39.384615 39.384615 0 0 0-35.446153-20.086154z" fill="#FF8F1F" /><path d="M984.615385 708.923077a52.775385 52.775385 0 0 0-47.261539-3.544615v-43.323077a63.015385 63.015385 0 0 0 51.987692-21.661539 65.772308 65.772308 0 0 0 12.603077-44.110769 63.803077 63.803077 0 0 0-12.996923-39.384615 59.470769 59.470769 0 0 0-50.018461-20.873847h-4.332308a67.741538 67.741538 0 0 0-11.027692-26.781538 64.984615 64.984615 0 0 0-53.169231-21.267692 61.833846 61.833846 0 0 0-53.563077 23.236923 59.076923 59.076923 0 0 0-11.027692 27.56923l-7.483077 3.15077a78.769231 78.769231 0 0 0-34.658462-9.058462 66.953846 66.953846 0 0 0-34.658461 9.058462 85.858462 85.858462 0 0 0-33.083077-10.633846 661.267692 661.267692 0 0 0-122.88-263.483077 973.193846 973.193846 0 0 0-196.923077-210.313847 17.723077 17.723077 0 0 0-22.449231 0 958.621538 958.621538 0 0 0-196.923077 210.707693 663.236923 663.236923 0 0 0-141.390769 380.455384c0 172.504615 157.538462 312.32 349.341538 312.32a358.793846 358.793846 0 0 0 278.055385-126.030769 130.363077 130.363077 0 0 0 37.415385 5.907692 111.852308 111.852308 0 0 0 49.624615-10.633846l6.301539 3.15077a71.68 71.68 0 0 0 29.144615 5.12 63.015385 63.015385 0 0 0 52.381538-24.024616c2.363077-3.544615 4.332308-7.089231 6.301539-10.633846a82.313846 82.313846 0 0 0 16.541538 16.541538 86.646154 86.646154 0 0 0 37.021539 15.753847 137.452308 137.452308 0 0 0 34.264615 2.756923 187.864615 187.864615 0 0 0 30.326154-3.544616 107.913846 107.913846 0 0 0 30.326154-11.815384 81.92 81.92 0 0 0 25.993846-25.993846 78.769231 78.769231 0 0 0 9.846154-39.384616A52.775385 52.775385 0 0 0 984.615385 708.923077z m-448.984616-39.384615h-88.221538v113.033846a16.935385 16.935385 0 0 1-6.301539 11.421538 33.083077 33.083077 0 0 1-20.873846 5.513846 39.384615 39.384615 0 0 1-12.603077 0 16.541538 16.541538 0 0 1-7.876923-3.938461L393.846154 787.692308a16.541538 16.541538 0 0 1 0-5.907693v-252.061538a21.661538 21.661538 0 0 1 6.695384-17.723077 34.264615 34.264615 0 0 1 20.086154-4.726154h127.606154a44.110769 44.110769 0 0 1 10.633846 0 17.329231 17.329231 0 0 1 7.483077 3.938462 24.418462 24.418462 0 0 1 6.301539 17.723077 20.873846 20.873846 0 0 1-6.301539 18.116923 28.750769 28.750769 0 0 1-18.510769 5.12h-100.430769v70.104615h87.433846a44.898462 44.898462 0 0 1 11.027692 0 27.569231 27.569231 0 0 1 8.270769 4.332308 24.418462 24.418462 0 0 1 5.513847 18.116923 22.055385 22.055385 0 0 1-5.513847 17.329231 16.541538 16.541538 0 0 1-7.876923 3.938461 46.08 46.08 0 0 1-11.421538 3.544616z m-192.196923 175.261538a211.889231 211.889231 0 0 1-218.190769-203.618462v-3.150769a18.510769 18.510769 0 0 1 11.815385-17.329231 18.904615 18.904615 0 0 1 24.812307 10.633847 271.753846 271.753846 0 0 0 187.076923 176.04923 19.298462 19.298462 0 0 1 13.39077 19.692308 18.904615 18.904615 0 0 1-18.904616 17.723077z m447.409231-67.347692a24.024615 24.024615 0 0 1-5.12 14.178461c-3.150769 4.726154-10.24 7.089231-21.267692 7.483077a39.384615 39.384615 0 0 1-12.996923-1.969231 21.661538 21.661538 0 0 1-8.27077-5.513846 16.147692 16.147692 0 0 1-3.938461-7.089231 22.449231 22.449231 0 0 1 0-7.08923v-12.603077a59.076923 59.076923 0 0 1-23.630769 28.750769 66.953846 66.953846 0 0 1-34.264616 7.876923 101.612308 101.612308 0 0 1-11.421538 0l-11.815385-1.969231a78.769231 78.769231 0 0 1-13.784615-4.332307 86.646154 86.646154 0 0 1-20.086154-13.784616c-2.756923-2.756923-5.907692-5.513846-8.664616-8.664615a75.618462 75.618462 0 0 1-7.08923-11.027692 110.670769 110.670769 0 0 1-11.421539-24.812308 166.203077 166.203077 0 0 1-6.301538-50.018462 176.443077 176.443077 0 0 1 5.907692-56.713846 106.732308 106.732308 0 0 1 20.48-37.021538 74.043077 74.043077 0 0 1 13.390769-11.815385 67.347692 67.347692 0 0 1 15.753846-8.270769 101.218462 101.218462 0 0 1 34.264616-5.907692 78.769231 78.769231 0 0 1 14.178461 1.96923 66.56 66.56 0 0 1 10.633847 3.938462 49.624615 49.624615 0 0 1 10.24 5.12 63.803077 63.803077 0 0 1 23.236923 31.901538v-17.32923a24.812308 24.812308 0 0 1 6.301538-14.178462 25.6 25.6 0 0 1 19.692308-7.483077 26.781538 26.781538 0 0 1 19.692307 7.876923 20.873846 20.873846 0 0 1 6.301539 13.784616z m173.686154 0a33.083077 33.083077 0 0 1-12.209231 12.20923 60.652308 60.652308 0 0 1-18.510769 7.089231 134.301538 134.301538 0 0 1-22.843077 2.756923 107.126154 107.126154 0 0 1-25.6-1.96923A51.987692 51.987692 0 0 1 866.461538 787.692308a50.018462 50.018462 0 0 1-14.178461-18.116923 69.710769 69.710769 0 0 1-5.12-29.538462v-118.153846H827.076923a16.147692 16.147692 0 0 1-15.36-6.695385 33.476923 33.476923 0 0 1-3.938461-18.116923 35.84 35.84 0 0 1 3.544615-18.116923 16.935385 16.935385 0 0 1 15.753846-3.938461h17.723077v-21.661539a33.870769 33.870769 0 0 1 4.726154-19.692308c3.150769-4.332308 10.24-6.695385 21.661538-6.695384s18.904615 0 21.661539 5.513846a27.963077 27.963077 0 0 1 3.938461 16.541538v25.993847h42.929231a24.024615 24.024615 0 0 1 18.904615 5.513846 26.387692 26.387692 0 0 1 4.726154 17.723077 27.569231 27.569231 0 0 1-4.332307 18.116923 25.993846 25.993846 0 0 1-20.873847 6.695384h-39.384615v111.458462a35.052308 35.052308 0 0 0 3.544615 11.815385 13.390769 13.390769 0 0 0 7.089231 5.907692 39.384615 39.384615 0 0 0 12.603077 0 30.326154 30.326154 0 0 0 14.966154-3.938462l14.178462-7.08923a13.784615 13.784615 0 0 1 12.996923 0c3.938462 2.363077 5.907692 7.089231 5.907692 14.966153a35.84 35.84 0 0 1-5.513846 21.267693z" fill="#FF8F1F" /></svg>