<?xml version="1.0" standalone="no"?><!DOCTYPE svg PUBLIC "-//W3C//DTD SVG 1.1//EN" "http://www.w3.org/Graphics/SVG/1.1/DTD/svg11.dtd"><svg class="icon" width="200px" height="200.00px" viewBox="0 0 1024 1024" version="1.1" xmlns="http://www.w3.org/2000/svg"><path d="M512 512m-512 0a512 512 0 1 0 1024 0 512 512 0 1 0-1024 0Z" fill="#F98D36" /><path d="M832 576H633.6c-6.4 0-19.2-6.4-19.2-12.8l-44.8-83.2-64 166.4c0 6.4-6.4 12.8-19.2 12.8-6.4 0-12.8 0-19.2-6.4L377.6 569.6l-12.8-12.8c0-6.4 0-12.8 6.4-12.8 6.4-6.4 25.6-6.4 32 0l64 64 70.4-179.2c0-6.4 12.8-12.8 19.2-12.8 6.4 0 19.2 6.4 19.2 12.8l64 115.2h134.4c19.2-25.6 32-57.6 32-89.6 0-76.8-51.2-140.8-121.6-153.6-70.4-32-140.8 0-172.8 64-32-64-108.8-102.4-179.2-83.2-70.4 19.2-121.6 83.2-121.6 160 0 44.8 19.2 83.2 51.2 115.2l236.8 224c6.4 6.4 6.4 6.4 12.8 6.4s12.8 0 12.8-6.4l166.4-160H832c19.2 0 25.6-6.4 25.6-19.2 0-19.2-12.8-25.6-25.6-25.6z m0 0" fill="#FFFFFF" /></svg>