<?xml version="1.0" standalone="no"?><!DOCTYPE svg PUBLIC "-//W3C//DTD SVG 1.1//EN" "http://www.w3.org/Graphics/SVG/1.1/DTD/svg11.dtd"><svg class="icon" width="200px" height="200.00px" viewBox="0 0 1024 1024" version="1.1" xmlns="http://www.w3.org/2000/svg"><path d="M368 736c44.8 0 80 35.2 80 80s-35.2 80-80 80h-48v32c0 19.2-12.8 32-32 32s-32-12.8-32-32V736h112z m256 0c44.8 0 80 35.2 80 80 0 31.184-17.056 57.712-42.528 70.96l24.832 12.416a32 32 0 0 1-23.232 59.36l-5.376-2.112L576 915.776V928c0 19.2-12.8 32-32 32s-32-12.8-32-32V736h112z m256 0a112 112 0 1 1 0 224 112 112 0 0 1 0-224z m0 64a48 48 0 1 0 0 96 48 48 0 0 0 0-96z m-80-224a32 32 0 1 1 0 64H192a64 64 0 0 0-63.568 56.544L128 704v64a64 64 0 0 0 56.544 63.568L192 832v64a128 128 0 0 1-128-128v-64a128 128 0 0 1 128-128h608zM368 800h-48v32h48c9.6 0 16-6.4 16-16s-6.4-16-16-16z m256 0h-48v32h48c9.6 0 16-6.4 16-16s-6.4-16-16-16zM512 64c141.392 0 256 114.608 256 256s-114.608 256-256 256-256-114.608-256-256S370.608 64 512 64z m0 64c-106.032 0-192 85.968-192 192s85.968 192 192 192 192-85.968 192-192S618.032 128 512 128z" fill="#1E81FF" /></svg>