<?xml version="1.0" standalone="no"?><!DOCTYPE svg PUBLIC "-//W3C//DTD SVG 1.1//EN" "http://www.w3.org/Graphics/SVG/1.1/DTD/svg11.dtd"><svg class="icon" width="200px" height="200.00px" viewBox="0 0 1024 1024" version="1.1" xmlns="http://www.w3.org/2000/svg"><path d="M156.48 704a64 64 0 0 0 0 128c35.2 0 245.44 16.96 352-128 75.84 75.2 67.52 93.12 67.52 224a64 64 0 0 0 128 0c0-148.16 8.32-200.64-116.8-326.4a675.52 675.52 0 0 0 45.76-57.6 278.4 278.4 0 0 0 185.92 75.52 295.36 295.36 0 0 0 60.48-6.4 64 64 0 0 0-26.24-125.44c-145.92 32-193.6-199.04-457.92-153.92a502.08 502.08 0 0 0-160 56.32 64 64 0 0 0 65.6 109.76 371.84 371.84 0 0 1 121.28-40.64c-60.8 212.8-62.72 256.64-265.6 244.8z m510.08-384a144 144 0 1 0-144-144 144 144 0 0 0 144 144z" fill="#231F20" /></svg>